<?xml version="1.0" encoding="UTF-8" standalone="no"?>
<!DOCTYPE svg PUBLIC "-//W3C//DTD SVG 1.1//EN" "http://www.w3.org/Graphics/SVG/1.1/DTD/svg11.dtd">
<svg width="100%" height="100%" viewBox="0 0 92 73" version="1.1" xmlns="http://www.w3.org/2000/svg" xmlns:xlink="http://www.w3.org/1999/xlink" xml:space="preserve" xmlns:serif="http://www.serif.com/" style="fill-rule:evenodd;clip-rule:evenodd;stroke-linejoin:round;stroke-miterlimit:2;">
    <g transform="matrix(0.965926,-0.258819,0.258819,0.965926,-15.0064,-0.0363516)">
        <path d="M83.5,78.5C84.049,78.5 84.5,78.049 84.5,77.5L84.5,71.2C87.647,70.461 89.893,67.633 89.9,64.4L89.9,56.9C94.095,55.524 96.806,51.397 96.4,47C95.954,42.224 91.993,38.479 87.2,38.3C86.291,38.296 85.385,38.396 84.5,38.6L84.5,30.1C84.5,25.163 80.437,21.1 75.5,21.1L24.5,21.1C19.563,21.1 15.5,25.163 15.5,30.1L15.5,38.6C14.615,38.396 13.709,38.296 12.8,38.3C8.007,38.479 4.046,42.224 3.6,47C3.194,51.397 5.905,55.524 10.1,56.9L10.1,64.4C10.107,67.633 12.353,70.461 15.5,71.2L15.5,77.9C15.546,78.43 15.97,78.854 16.5,78.9C17.049,78.9 17.5,78.449 17.5,77.9L17.5,71.4L82.5,71.4L82.5,77.5C82.496,77.535 82.494,77.571 82.494,77.606C82.494,78.1 82.9,78.506 83.394,78.506C83.429,78.506 83.465,78.504 83.5,78.5ZM17.5,30.1C17.5,26.26 20.66,23.1 24.5,23.1L75.5,23.1C79.34,23.1 82.5,26.26 82.5,30.1L82.5,39.4C81.668,39.782 80.92,40.326 80.3,41C79.067,42.177 78.169,43.661 77.7,45.3L22.3,45.3C21.831,43.661 20.933,42.177 19.7,41C19.08,40.326 18.332,39.782 17.5,39.4L17.5,30.1ZM22.6,47.3L77.4,47.3L77.4,57.1L22.6,57.1L22.6,47.3ZM12.1,64.4L12.1,56.1C12.11,55.619 11.771,55.196 11.3,55.1C7.691,54.226 5.248,50.796 5.6,47.1C5.995,43.347 9.128,40.428 12.9,40.3L13.1,40.3C15.045,40.268 16.922,41.027 18.3,42.4C19.758,43.819 20.587,45.765 20.6,47.8L20.6,58.1C20.646,58.63 21.07,59.054 21.6,59.1L78.4,59.1C78.93,59.054 79.354,58.63 79.4,58.1L79.4,47.8C79.413,45.765 80.242,43.819 81.7,42.4C83.126,40.975 85.086,40.213 87.1,40.3C90.872,40.428 94.005,43.347 94.4,47.1C94.752,50.796 92.309,54.226 88.7,55.1C88.229,55.196 87.89,55.619 87.9,56.1L87.9,64.4C87.9,67.143 85.643,69.4 82.9,69.4L17.1,69.4C14.357,69.4 12.1,67.143 12.1,64.4Z" style="fill:rgb(227,196,129);fill-rule:nonzero;stroke:rgb(227,196,129);stroke-width:1px;"/>
    </g>
</svg>
